<svg width="14" height="17" viewBox="0 0 14 17" fill="none" xmlns="http://www.w3.org/2000/svg">
<path d="M12.25 0.283325H5.125C4.25417 0.283325 3.54167 0.995825 3.54167 1.86666V11.3667C3.54167 12.2375 4.25417 12.95 5.125 12.95H12.25C13.1208 12.95 13.8333 12.2375 13.8333 11.3667V1.86666C13.8333 0.995825 13.1208 0.283325 12.25 0.283325ZM12.25 11.3667H5.125V1.86666H12.25V11.3667ZM0.375 10.575V8.99166H1.95833V10.575H0.375ZM0.375 6.22083H1.95833V7.80416H0.375V6.22083ZM5.91667 14.5333H7.5V16.1167H5.91667V14.5333ZM0.375 13.3458V11.7625H1.95833V13.3458H0.375ZM1.95833 16.1167C1.0875 16.1167 0.375 15.4042 0.375 14.5333H1.95833V16.1167ZM4.72917 16.1167H3.14583V14.5333H4.72917V16.1167ZM8.6875 16.1167V14.5333H10.2708C10.2708 15.4042 9.55833 16.1167 8.6875 16.1167ZM1.95833 3.44999V5.03333H0.375C0.375 4.16249 1.0875 3.44999 1.95833 3.44999Z" fill="#1C2642"/>
</svg>
