<svg width="14" height="16" viewBox="0 0 14 16" fill="none" xmlns="http://www.w3.org/2000/svg">
<path d="M12.25 0.0834961H5.125C4.25417 0.0834961 3.54167 0.795996 3.54167 1.66683V11.1668C3.54167 12.0377 4.25417 12.7502 5.125 12.7502H12.25C13.1208 12.7502 13.8333 12.0377 13.8333 11.1668V1.66683C13.8333 0.795996 13.1208 0.0834961 12.25 0.0834961ZM12.25 11.1668H5.125V1.66683H12.25V11.1668ZM0.375 10.3752V8.79183H1.95833V10.3752H0.375ZM0.375 6.021H1.95833V7.60433H0.375V6.021ZM5.91667 14.3335H7.5V15.9168H5.91667V14.3335ZM0.375 13.146V11.5627H1.95833V13.146H0.375ZM1.95833 15.9168C1.0875 15.9168 0.375 15.2043 0.375 14.3335H1.95833V15.9168ZM4.72917 15.9168H3.14583V14.3335H4.72917V15.9168ZM8.6875 15.9168V14.3335H10.2708C10.2708 15.2043 9.55833 15.9168 8.6875 15.9168ZM1.95833 3.25016V4.8335H0.375C0.375 3.96266 1.0875 3.25016 1.95833 3.25016Z" fill="#1C2642"/>
</svg>
