<svg width="10" height="11" viewBox="0 0 10 11" fill="none" xmlns="http://www.w3.org/2000/svg">
<path d="M7.96079 3.51941C7.94833 4.33354 7.6775 5.43583 6.40783 5.8632C6.80542 4.91745 6.86608 4.01233 6.58442 3.16624C6.20796 2.03037 4.95183 1.14312 4.11604 0.659954C3.83058 0.494204 3.46442 0.700037 3.46983 1.02991C3.48067 1.63225 3.29758 2.51245 2.40871 3.40133C1.22462 4.58433 0.625 5.80687 0.625 7.03429C0.625 8.57533 1.70833 10.5459 3.875 10.5459C1.68613 8.35704 3.33333 6.49262 3.33333 6.49262C3.79158 9.69604 6.03517 10.5459 7.125 10.5459C8.05179 10.5459 9.83333 9.86883 9.83333 7.05325C9.83333 5.3562 9.11183 4.06812 8.54146 3.31629C8.3535 3.0682 7.96512 3.20904 7.96079 3.51941Z" fill="#1C2642"/>
</svg>
