<svg width="30" height="30" viewBox="0 0 30 30" fill="none" xmlns="http://www.w3.org/2000/svg">
<path d="M29.8438 15C29.8438 6.8125 23.1875 0.15625 15 0.15625C6.8125 0.15625 0.15625 6.8125 0.15625 15C0.15625 23.1875 6.8125 29.8438 15 29.8438C23.1875 29.8438 29.8438 23.1875 29.8438 15ZM2.28125 15C2.28125 8 8 2.28125 15 2.28125C22 2.28125 27.7188 8 27.7188 15C27.7188 22 22 27.7188 15 27.7188C8 27.7188 2.28125 22 2.28125 15Z" fill="#2E364E"/>
<path d="M11.2188 15.75C11.0313 15.5625 10.9063 15.2813 10.9063 15C10.9063 14.7188 11.0313 14.4375 11.2188 14.25L16.9375 8.53125C17.3438 8.125 18.0313 8.125 18.4375 8.53125C18.8437 8.9375 18.8437 9.625 18.4375 10.0312L13.5 15L18.4375 19.9375C18.6563 20.1563 18.75 20.4062 18.75 20.6875C18.75 20.9687 18.6563 21.25 18.4375 21.4375C18.0313 21.8437 17.3438 21.8437 16.9375 21.4375L11.2188 15.75Z" fill="#2E364E"/>
</svg>
