<svg width="12" height="13" viewBox="0 0 12 13" fill="none" xmlns="http://www.w3.org/2000/svg">
<path d="M5.99829 5.09136L1.71244 0.795514C1.52431 0.607392 1.26917 0.501706 1.00312 0.501706C0.737078 0.501706 0.48193 0.607392 0.293808 0.795514C0.105686 0.983636 0 1.23878 0 1.50483C0 1.77087 0.105686 2.02602 0.293808 2.21414L4.58966 6.5L0.293808 10.7859C0.105686 10.974 -1.98219e-09 11.2291 0 11.4952C1.98219e-09 11.7612 0.105686 12.0164 0.293808 12.2045C0.48193 12.3926 0.737078 12.4983 1.00312 12.4983C1.26917 12.4983 1.52431 12.3926 1.71244 12.2045L5.99829 7.90864L10.2842 12.2045C10.377 12.2981 10.4875 12.3724 10.6093 12.4232C10.731 12.4739 10.8616 12.5 10.9935 12.5C11.1254 12.5 11.2559 12.4739 11.3777 12.4232C11.4994 12.3724 11.6099 12.2981 11.7028 12.2045C11.7964 12.1116 11.8707 12.0011 11.9215 11.8794C11.9722 11.7576 11.9983 11.6271 11.9983 11.4952C11.9983 11.3633 11.9722 11.2327 11.9215 11.111C11.8707 10.9892 11.7964 10.8787 11.7028 10.7859L7.40693 6.5L11.7028 2.21414C11.7964 2.12127 11.8707 2.01077 11.9215 1.88903C11.9722 1.76729 11.9983 1.63671 11.9983 1.50483C11.9983 1.37294 11.9722 1.24236 11.9215 1.12062C11.8707 0.99888 11.7964 0.888387 11.7028 0.795514C11.6099 0.701876 11.4994 0.627552 11.3777 0.576832C11.2559 0.526113 11.1254 0.5 10.9935 0.5C10.8616 0.5 10.731 0.526113 10.6093 0.576832C10.4875 0.627552 10.377 0.701876 10.2842 0.795514L5.99829 5.09136Z" fill="#1C2642"/>
</svg>
