<svg width="12" height="13" viewBox="0 0 12 13" fill="none" xmlns="http://www.w3.org/2000/svg">
<path d="M8.07101 9.99999H0.499992C0.2235 9.99999 0 10.224 0 10.5C0 10.776 0.2235 11 0.499992 11H8.07098C8.29448 11.86 9.07048 12.5 9.99998 12.5C11.103 12.5 12 11.603 12 10.5C12 9.39702 11.103 8.50002 10 8.50002C9.0705 8.49999 8.29451 9.14 8.07101 9.99999Z" fill="#1C2642"/>
<path d="M0 2.50003C0 3.60302 0.897 4.50002 1.99999 4.50002C2.9295 4.50002 3.70549 3.86001 3.92899 3.00002L11.5 3.00002C11.7765 3.00002 12 2.77603 12 2.50003C12 2.22403 11.7765 2.00003 11.5 2.00003L3.92899 2.00003C3.70549 1.14004 2.9295 0.500035 1.99999 0.500035C0.897 0.500035 0 1.39703 0 2.50003Z" fill="#1C2642"/>
<path d="M4.071 6.00004H0.499992C0.2235 6.00004 0 6.22403 0 6.50003C0 6.77603 0.2235 7.00002 0.499992 7.00002H4.071C4.2945 7.86001 5.07049 8.50002 6 8.50002C6.92951 8.50002 7.7055 7.86001 7.929 7.00002L11.5 7.00002C11.7765 7.00002 12 6.77603 12 6.50003C12 6.22403 11.7765 6.00004 11.5 6.00004L7.929 6.00004C7.7055 5.14005 6.92951 4.50004 6 4.50004C5.07049 4.50004 4.2945 5.14002 4.071 6.00004Z" fill="#1C2642"/>
</svg>
