<svg width="21" height="20" viewBox="0 0 21 20" fill="none" xmlns="http://www.w3.org/2000/svg">
<path fill-rule="evenodd" clip-rule="evenodd" d="M20.5 10C20.5 15.5228 16.0228 20 10.5 20C4.97715 20 0.5 15.5228 0.5 10C0.5 4.47715 4.97715 0 10.5 0C16.0228 0 20.5 4.47715 20.5 10ZM14.7071 5.79289C15.0976 6.18342 15.0976 6.81658 14.7071 7.20711L11.9142 10L14.7071 12.7929C15.0976 13.1834 15.0976 13.8166 14.7071 14.2071C14.3166 14.5976 13.6834 14.5976 13.2929 14.2071L10.5 11.4142L7.70711 14.2071C7.31658 14.5976 6.68342 14.5976 6.29289 14.2071C5.90237 13.8166 5.90237 13.1834 6.29289 12.7929L9.08579 10L6.29289 7.20711C5.90237 6.81658 5.90237 6.18342 6.29289 5.79289C6.68342 5.40237 7.31658 5.40237 7.70711 5.79289L10.5 8.58579L13.2929 5.79289C13.6834 5.40237 14.3166 5.40237 14.7071 5.79289Z" fill="#D13913"/>
</svg>
