<svg width="30" height="30" viewBox="0 0 30 30" fill="none" xmlns="http://www.w3.org/2000/svg">
<path d="M29.8438 15C29.8438 6.8125 23.1875 0.15625 15 0.15625C6.8125 0.15625 0.15625 6.8125 0.15625 15C0.15625 23.1875 6.8125 29.8438 15 29.8438C23.1875 29.8438 29.8438 23.1875 29.8438 15ZM2.28125 15C2.28125 8 8 2.28125 15 2.28125C22 2.28125 27.7188 8 27.7188 15C27.7188 22 22 27.7188 15 27.7188C8 27.7188 2.28125 22 2.28125 15Z" fill="#2E364E"/>
<path d="M19.2187 15.75C19.4062 15.5625 19.5312 15.2813 19.5312 15C19.5312 14.7188 19.4062 14.4375 19.2187 14.25L13.5 8.53125C13.0937 8.125 12.4062 8.125 12 8.53125C11.5938 8.9375 11.5938 9.625 12 10.0312L16.9375 15L12 19.9375C11.7812 20.1563 11.6875 20.4062 11.6875 20.6875C11.6875 20.9687 11.7812 21.25 12 21.4375C12.4062 21.8437 13.0937 21.8437 13.5 21.4375L19.2187 15.75Z" fill="#2E364E"/>
</svg>
