<svg width="7" height="11" viewBox="0 0 7 11" fill="none" xmlns="http://www.w3.org/2000/svg">
<path d="M6.77826 4.36269L3.82822 0.746698C3.74436 0.643384 3.58812 0.643384 3.50311 0.746698L0.553071 4.36269C0.440491 4.50083 0.536988 4.71094 0.715047 4.71094H6.61628C6.79434 4.71094 6.89199 4.50199 6.77826 4.36269Z" fill="#1C2642"/>
<path d="M6.65651 4.4857C6.58413 4.39748 6.51176 4.30926 6.44054 4.21987C6.26018 3.99815 6.07982 3.7776 5.89832 3.55588C5.66397 3.26915 5.43077 2.98243 5.19642 2.6957C4.95977 2.40665 4.72427 2.11645 4.48763 1.8274C4.30382 1.6022 4.12117 1.37816 3.93737 1.15296C3.8604 1.05893 3.78573 0.96258 3.70646 0.870875C3.70302 0.866231 3.6766 0.841854 3.69038 0.852301C3.70646 0.86507 3.65477 0.83721 3.67774 0.845336C3.69268 0.85114 3.63294 0.845336 3.67315 0.845336C3.63869 0.845336 3.69613 0.844175 3.66166 0.845336C3.65936 0.845336 3.63524 0.853462 3.65477 0.846497C3.6766 0.838371 3.64788 0.84998 3.64903 0.84998C3.64673 0.84998 3.62605 0.866231 3.64213 0.853462C3.65707 0.841854 3.63754 0.858105 3.63639 0.860427C3.63294 0.86391 3.6295 0.868553 3.62605 0.872035C3.62031 0.879 3.61456 0.885965 3.60882 0.89293C3.56976 0.940524 3.5307 0.988118 3.49279 1.03571C3.33197 1.23305 3.17114 1.4304 3.01031 1.62774C2.784 1.90518 2.55769 2.18261 2.33139 2.46005C2.09129 2.7549 1.85005 3.04976 1.60996 3.34461C1.41007 3.58954 1.21019 3.83448 1.0103 4.07941C0.904613 4.20826 0.800075 4.33828 0.694387 4.46713C0.689793 4.47293 0.684049 4.48106 0.678305 4.48686C0.677156 4.48686 0.707024 4.44856 0.69209 4.46945C0.688643 4.47526 0.685197 4.48222 0.680602 4.48803C0.6829 4.4857 0.687495 4.46017 0.684049 4.47758C0.6829 4.48338 0.680603 4.49035 0.678305 4.49731C0.670264 4.52401 0.67371 4.47526 0.679454 4.50312C0.680603 4.50776 0.684049 4.52865 0.679454 4.50544C0.672561 4.47874 0.681751 4.51124 0.6829 4.51356C0.693239 4.52865 0.678305 4.50428 0.677156 4.50196C0.680603 4.50776 0.6829 4.51356 0.686346 4.51937C0.689792 4.52517 0.693239 4.52982 0.696685 4.53562C0.693239 4.52982 0.687495 4.5124 0.689793 4.52517C0.690942 4.52865 0.70128 4.53562 0.703578 4.5391C0.698983 4.53446 0.688644 4.51937 0.694387 4.53098C0.696685 4.53446 0.708173 4.53794 0.711619 4.54026C0.70128 4.5333 0.688644 4.53098 0.708173 4.53678C0.736892 4.54607 0.686347 4.5391 0.718512 4.53794C0.719661 4.53794 0.71966 4.53794 0.720809 4.53794C0.725404 4.53794 0.728851 4.53794 0.733446 4.53794C0.749529 4.53794 0.76676 4.53794 0.782843 4.53794C0.950563 4.53794 1.11943 4.53794 1.28715 4.53794C1.57664 4.53794 1.86728 4.53794 2.15677 4.53794C2.51978 4.53794 2.88165 4.53794 3.24466 4.53794C3.62605 4.53794 4.00859 4.53794 4.38998 4.53794C4.73921 4.53794 5.08729 4.53794 5.43651 4.53794C5.69958 4.53794 5.9638 4.53794 6.22687 4.53794C6.35323 4.53794 6.47845 4.5391 6.60481 4.53794C6.60826 4.53794 6.6117 4.53794 6.61515 4.53794C6.6163 4.53794 6.6163 4.53794 6.61745 4.53794C6.61975 4.53794 6.61745 4.53678 6.62549 4.53794C6.64387 4.54026 6.61975 4.5391 6.61515 4.54026C6.6186 4.5391 6.63353 4.53794 6.63468 4.53562C6.63813 4.52865 6.63468 4.53446 6.62434 4.54142C6.62779 4.5391 6.63928 4.53562 6.64157 4.53214C6.64732 4.52053 6.63698 4.53562 6.63238 4.54026C6.63468 4.53678 6.64502 4.53098 6.64617 4.52633C6.64847 4.51356 6.64272 4.53098 6.63928 4.53678C6.64272 4.53098 6.64617 4.52633 6.64961 4.52053C6.65306 4.51472 6.65536 4.50892 6.6588 4.50312C6.65766 4.50544 6.64272 4.52982 6.65306 4.51472C6.65651 4.51008 6.65536 4.50196 6.65766 4.49615C6.65766 4.49615 6.65421 4.53098 6.65536 4.51008C6.65536 4.50428 6.65421 4.49615 6.65536 4.49035C6.65421 4.49383 6.66455 4.52169 6.65766 4.50428C6.65536 4.49731 6.64272 4.46249 6.65191 4.4799C6.6611 4.49847 6.63468 4.45668 6.63123 4.45204C6.5738 4.37775 6.61975 4.25702 6.69327 4.21407C6.78172 4.16183 6.87248 4.2013 6.92877 4.27675C7.02296 4.40096 7.02296 4.59018 6.93336 4.71671C6.85754 4.82351 6.74611 4.88271 6.61515 4.88619C6.58299 4.88735 6.55197 4.88619 6.5198 4.88619C6.32911 4.88619 6.13841 4.88619 5.94886 4.88619C5.63755 4.88619 5.32623 4.88619 5.01606 4.88619C4.63927 4.88619 4.26247 4.88619 3.88567 4.88619C3.49624 4.88619 3.10795 4.88619 2.71852 4.88619C2.37734 4.88619 2.035 4.88619 1.69382 4.88619C1.45258 4.88619 1.21248 4.88619 0.971241 4.88619C0.856365 4.88619 0.707024 4.90592 0.595593 4.86646C0.44051 4.81074 0.32793 4.65983 0.333674 4.49035C0.337121 4.39168 0.376178 4.31158 0.435914 4.23729C0.464633 4.2013 0.494502 4.16531 0.52437 4.12933C0.676007 3.9436 0.826496 3.75786 0.978134 3.57329C1.20674 3.29353 1.43534 3.01261 1.66395 2.73285C1.90979 2.43103 2.15677 2.12922 2.40261 1.8274C2.61054 1.57318 2.81846 1.31779 3.02639 1.06357C3.13897 0.925433 3.25155 0.787295 3.36413 0.650317C3.47212 0.517982 3.65017 0.461101 3.811 0.528429C3.89027 0.562093 3.94196 0.615492 3.99366 0.679337C4.12232 0.83721 4.25098 0.995084 4.37964 1.15296C4.59561 1.41763 4.81273 1.68346 5.0287 1.94813C5.27683 2.25226 5.52497 2.5564 5.7731 2.86054C5.99367 3.13101 6.21423 3.40033 6.43365 3.6708C6.57035 3.83796 6.70705 4.00512 6.84261 4.17228C6.86214 4.1955 6.88052 4.21871 6.90005 4.24193C6.95863 4.3139 6.97012 4.41721 6.90005 4.48803C6.83916 4.54723 6.71624 4.55884 6.65651 4.4857Z" fill="#1C2642"/>
<path d="M6.7782 6.6345L3.82816 10.2505C3.74429 10.3538 3.58806 10.3538 3.50305 10.2505L0.55301 6.6345C0.44043 6.49636 0.536927 6.28625 0.714986 6.28625H6.61622C6.79428 6.28625 6.89193 6.4952 6.7782 6.6345Z" fill="#1C2642"/>
<path d="M6.89995 6.7575C6.82528 6.84921 6.75061 6.94091 6.67479 7.03262C6.48754 7.26246 6.29914 7.49231 6.11189 7.72215C5.87065 8.01817 5.62941 8.31302 5.38817 8.60903C5.14922 8.90156 4.91143 9.19409 4.67248 9.48546C4.49328 9.70486 4.31407 9.92426 4.13486 10.1448C4.03492 10.2679 3.93383 10.4339 3.7753 10.4838C3.61906 10.5325 3.45938 10.4675 3.35944 10.3456C3.31808 10.2946 3.27673 10.2446 3.23537 10.1936C3.0665 9.98578 2.89649 9.77799 2.72762 9.57136C2.49327 9.28348 2.25777 8.99559 2.02342 8.7077C1.77988 8.40937 1.53634 8.10987 1.2928 7.81154C1.09636 7.57125 0.899922 7.33095 0.703482 7.0895C0.613878 6.97922 0.523126 6.87126 0.43467 6.75982C0.371488 6.68088 0.328983 6.5915 0.333579 6.48819C0.340471 6.3187 0.456497 6.16431 0.620771 6.12368C0.673615 6.11091 0.72416 6.11207 0.778152 6.11207C0.950468 6.11207 1.12278 6.11207 1.29625 6.11207C1.59608 6.11207 1.89591 6.11207 2.19574 6.11207C2.56794 6.11207 2.94014 6.11207 3.31119 6.11207C3.69948 6.11207 4.08891 6.11207 4.47719 6.11207C4.82872 6.11207 5.18024 6.11207 5.53177 6.11207C5.78679 6.11207 6.04297 6.11207 6.298 6.11207C6.40368 6.11207 6.50937 6.10859 6.61506 6.11207C6.74716 6.11556 6.86089 6.17708 6.93556 6.28736C7.02172 6.41389 7.02057 6.59963 6.92637 6.72267C6.87008 6.79697 6.77818 6.83644 6.69087 6.78536C6.6185 6.74241 6.5714 6.62168 6.62884 6.54739C6.63688 6.53578 6.64378 6.52185 6.65297 6.5114C6.65067 6.51372 6.64607 6.53926 6.64952 6.52185C6.65067 6.51605 6.65297 6.50908 6.65526 6.50212C6.6633 6.47542 6.65986 6.52417 6.65411 6.49631C6.65297 6.49167 6.64952 6.47077 6.65411 6.49399C6.66101 6.52069 6.65182 6.48819 6.65067 6.48586C6.64033 6.47077 6.65526 6.49515 6.65641 6.49747C6.65297 6.49167 6.65067 6.48586 6.64722 6.48006C6.64378 6.47426 6.64033 6.46961 6.63688 6.46381C6.64033 6.46961 6.64607 6.48702 6.64378 6.47426C6.64263 6.47077 6.63229 6.46381 6.62999 6.46033C6.63458 6.46497 6.64492 6.48006 6.63918 6.46845C6.63688 6.46497 6.62539 6.46149 6.62195 6.45916C6.63229 6.46613 6.64492 6.46845 6.62539 6.46265C6.59668 6.45336 6.64722 6.46033 6.61506 6.46149C6.61391 6.46149 6.61391 6.46149 6.61276 6.46149C6.60931 6.46149 6.60472 6.46149 6.60127 6.46149C6.55762 6.46149 6.51282 6.46149 6.46916 6.46149C6.26583 6.46149 6.06135 6.46149 5.85802 6.46149C5.54555 6.46149 5.23308 6.46149 4.92062 6.46149C4.54842 6.46149 4.17622 6.46149 3.80401 6.46149C3.42492 6.46149 3.04697 6.46149 2.66788 6.46149C2.33589 6.46149 2.00274 6.46149 1.67075 6.46149C1.4364 6.46149 1.20205 6.46149 0.9677 6.46149C0.904517 6.46149 0.840186 6.46149 0.777004 6.46149C0.760921 6.46149 0.744839 6.46149 0.729905 6.46149C0.726458 6.46149 0.723012 6.46149 0.718417 6.46149C0.717268 6.46149 0.717268 6.46149 0.716119 6.46149C0.711524 6.46149 0.705781 6.46265 0.701185 6.46149C0.740243 6.46265 0.683954 6.46961 0.701185 6.46265C0.727607 6.4522 0.670168 6.48354 0.694292 6.46613C0.718416 6.44872 0.669019 6.49399 0.688548 6.47077C0.703482 6.45336 0.681656 6.48586 0.67821 6.49051C0.667871 6.50444 0.682805 6.48238 0.682805 6.4789C0.681656 6.48586 0.679358 6.49747 0.675912 6.50328C0.675912 6.50328 0.679358 6.46845 0.67821 6.48935C0.67821 6.49515 0.679358 6.50328 0.67821 6.50908C0.679358 6.5056 0.66902 6.47774 0.675912 6.49515C0.67821 6.50095 0.679358 6.50908 0.680507 6.51488C0.681655 6.51953 0.690846 6.53694 0.681656 6.51953C0.671317 6.49979 0.685102 6.52069 0.685102 6.52301C0.685102 6.52998 0.708078 6.54739 0.683954 6.52301C0.620771 6.46033 0.672465 6.50908 0.674763 6.5114C0.681655 6.51721 0.686251 6.52649 0.691995 6.53346C0.729904 6.57989 0.768962 6.62749 0.806871 6.67392C0.9677 6.8701 1.12738 7.06744 1.28821 7.26362C1.51566 7.54222 1.74312 7.82082 1.97058 8.10059C2.21067 8.39544 2.45191 8.69029 2.692 8.98514C2.89189 9.23008 3.09178 9.47501 3.29166 9.71995C3.39735 9.8488 3.50189 9.97882 3.60757 10.1077C3.61332 10.1146 3.61791 10.1204 3.62366 10.1274C3.63055 10.1355 3.63744 10.1425 3.64548 10.1506C3.62595 10.132 3.64893 10.1518 3.66042 10.1576C3.634 10.1448 3.66157 10.1553 3.6742 10.1576C3.67191 10.1576 3.64434 10.1541 3.66386 10.1541C3.69029 10.1541 3.63514 10.1564 3.66157 10.1564C3.66846 10.1564 3.6765 10.1529 3.68224 10.1506C3.67995 10.1506 3.65582 10.1622 3.67535 10.1541C3.68224 10.1506 3.68799 10.1471 3.69488 10.1425C3.69143 10.1448 3.6765 10.1599 3.68914 10.146C3.69488 10.1402 3.70062 10.1344 3.70522 10.1274C3.7282 10.1007 3.75002 10.0717 3.773 10.0438C3.91085 9.87434 4.04985 9.70486 4.1877 9.53538C4.40482 9.26955 4.62194 9.00256 4.83906 8.73672C5.08145 8.43955 5.32384 8.14238 5.56623 7.8452C5.7799 7.58285 5.99357 7.32167 6.20724 7.05932C6.3382 6.89796 6.46916 6.73777 6.60127 6.57641C6.61965 6.55435 6.63688 6.5323 6.65526 6.51024C6.715 6.43711 6.83792 6.44872 6.8988 6.51024C6.97117 6.58221 6.95969 6.68437 6.89995 6.7575Z" fill="#1C2642"/>
</svg>
