<svg xmlns="http://www.w3.org/2000/svg" viewBox="0 0 114 20" width="114" height="20">
	<style>
		tspan { white-space:pre }
		.shp0 { fill: #eb9a11 } 
	</style>
	<g id="Layer">
		<g id="Layer">
			<g id="Layer">
				<path id="Layer" fill-rule="evenodd" class="shp0" d="M42.24 9.27L38.54 12.67L39.24 17.87C39.34 18.07 39.24 18.47 39.04 18.77C38.64 19.47 37.84 19.57 37.14 19.17L33.34 16.67L29.54 19.27C29.04 19.67 28.54 19.67 28.04 19.37C27.54 19.07 27.24 18.67 27.34 18.07L28.04 12.87L24.34 9.57C24.04 9.37 23.84 9.07 23.84 8.77C23.74 7.97 24.34 7.37 25.04 7.17L30.04 6.47L32.04 1.77C32.04 1.47 32.34 1.17 32.74 1.07C33.44 0.87 34.14 1.07 34.44 1.77L36.44 6.37L41.44 6.97C41.74 7.07 42.04 7.17 42.24 7.47C42.74 8.07 42.64 8.87 42.24 9.27ZM41.44 8.47L36.14 7.77C35.84 7.77 35.64 7.57 35.54 7.37L33.34 2.37L31.24 7.37C31.14 7.57 30.84 7.77 30.64 7.77L25.34 8.57L29.34 12.17C29.44 12.27 29.54 12.57 29.54 12.77L28.84 18.27L33.04 15.37C33.14 15.17 33.54 15.17 33.74 15.37L37.84 18.17L37.04 12.67C36.94 12.47 37.04 12.27 37.24 12.07L41.44 8.47Z" />
				<path id="Layer copy" fill-rule="evenodd" class="shp0" d="M67.24 9.27L63.54 12.67L64.24 17.87C64.34 18.07 64.24 18.47 64.04 18.77C63.64 19.47 62.84 19.57 62.14 19.17L58.34 16.67L54.54 19.27C54.04 19.67 53.54 19.67 53.04 19.37C52.54 19.07 52.24 18.67 52.34 18.07L53.04 12.87L49.34 9.57C49.04 9.37 48.84 9.07 48.84 8.77C48.74 7.97 49.34 7.37 50.04 7.17L55.04 6.47L57.04 1.77C57.04 1.47 57.34 1.17 57.74 1.07C58.44 0.87 59.14 1.07 59.44 1.77L61.44 6.37L66.44 6.97C66.74 7.07 67.04 7.17 67.24 7.47C67.74 8.07 67.64 8.87 67.24 9.27ZM66.44 8.47L61.14 7.77C60.84 7.77 60.64 7.57 60.54 7.37L58.34 2.37L56.24 7.37C56.14 7.57 55.84 7.77 55.64 7.77L50.34 8.57L54.34 12.17C54.44 12.27 54.54 12.57 54.54 12.77L53.84 18.27L58.04 15.37C58.14 15.17 58.54 15.17 58.74 15.37L62.84 18.17L62.04 12.67C61.94 12.47 62.04 12.27 62.24 12.07L66.44 8.47Z" />
			</g>
		</g>
	</g>
	<g id="Layer">
		<g id="Layer">
			<g id="Layer">
			</g>
		</g>
	</g>
	<g id="Layer">
		<g id="Layer">
			<g id="Layer">
				<path id="Layer" fill-rule="evenodd" class="shp0" d="M18.8 7.1C18.6 6.8 18.3 6.7 18 6.6L18 6.6L13 6L11 1.4C10.7 0.7 10 0.5 9.3 0.7C9 0.9 8.7 1.2 8.6 1.5L6.6 6.2L1.6 6.9C1 7.1 0.4 7.8 0.5 8.5C0.5 8.8 0.7 9.1 1 9.3L4.7 12.6L4 17.8C3.9 18.4 4.2 18.8 4.7 19.1C5.2 19.4 5.7 19.4 6.2 19L10 16.4L13.8 18.9C14.5 19.3 15.3 19.2 15.7 18.5C15.9 18.2 16 17.8 15.9 17.6L15.2 12.4L18.9 9C19.3 8.5 19.4 7.7 18.8 7.1Z" />
			</g>
		</g>
	</g>
	<g id="Layer">
		<g id="Layer">
			<g id="Layer">
				<path id="Layer" fill-rule="evenodd" class="shp0" d="M89.7 9.1L86 12.5L86.8 17.5C86.9 17.7 86.8 18.1 86.6 18.4C86.2 19.1 85.4 19.2 84.7 18.8L80.9 16.3L77.1 18.9C76.6 19.3 76.1 19.3 75.6 19C75.1 18.7 74.8 18.3 74.9 17.7L75.6 12.5L71.9 9.2C71.6 9 71.4 8.7 71.4 8.4C71.3 7.6 71.9 7 72.6 6.8L77.6 6.1L79.6 1.4C79.6 1.1 79.9 0.8 80.3 0.7C81 0.5 81.7 0.7 82 1.4L84 6L89 6.6C89.3 6.7 89.6 6.8 89.8 7.1C90.3 7.7 90.2 8.5 89.7 9.1ZM89 8.1L83.7 7.4C83.4 7.4 83.2 7.2 83.1 7L80.9 2L78.8 7C78.7 7.2 78.4 7.4 78.2 7.4L72.9 8.2L76.9 11.8C77 11.9 77.1 12.2 77.1 12.4L76.4 17.9L80.6 15C80.7 14.8 81.1 14.8 81.3 15L85.4 17.8L84.6 12.3C84.5 12.1 84.6 11.9 84.8 11.7L89 8.1Z" />
			</g>
		</g>
	</g>
	<g id="Layer">
		<g id="Layer">
			<g id="Layer">
				<path id="Layer" fill-rule="evenodd" class="shp0" d="M113.4 8.9L109.7 12.3L110.4 17.5C110.5 17.7 110.4 18.1 110.2 18.4C109.8 19.1 109 19.2 108.3 18.8L104.5 16.3L100.7 18.9C100.2 19.3 99.7 19.3 99.2 19C98.7 18.7 98.4 18.3 98.5 17.7L99.2 12.5L95.5 9.2C95.2 9 95 8.7 95 8.4C94.9 7.6 95.5 7 96.2 6.8L101.2 6.1L103.2 1.4C103.2 1.1 103.5 0.8 103.9 0.7C104.6 0.5 105.3 0.7 105.6 1.4L107.6 6L112.6 6.6C112.9 6.7 113.2 6.8 113.4 7.1C113.9 7.7 113.9 8.5 113.4 8.9ZM112.6 8.1L107.3 7.4C107 7.4 106.8 7.2 106.7 7L104.5 2L102.4 7C102.3 7.2 102 7.4 101.8 7.4L96.5 8.2L100.5 11.8C100.6 11.9 100.7 12.2 100.7 12.4L100 17.9L104.2 15C104.3 14.8 104.7 14.8 104.9 15L109 17.8L108.2 12.3C108.1 12.1 108.2 11.9 108.4 11.7L112.6 8.1Z" />
			</g>
		</g>
	</g>
</svg>