<svg xmlns="http://www.w3.org/2000/svg" viewBox="0 0 114 20" width="114" height="20">
	<style>
		tspan { white-space:pre }
		.shp0 { fill: #eb9a11 } 
	</style>
	<g id="Layer">
		<g id="Layer">
			<g id="Layer">
				<g id="Layer copy 4">
					<path id="Layer copy" fill-rule="evenodd" class="shp0" d="M-49.59 -78.73L-53.29 -75.33L-52.59 -70.13C-52.49 -69.93 -52.59 -69.53 -52.79 -69.23C-53.19 -68.53 -53.99 -68.43 -54.69 -68.83L-58.49 -71.33L-62.29 -68.73C-62.79 -68.33 -63.29 -68.33 -63.79 -68.63C-64.29 -68.93 -64.59 -69.33 -64.49 -69.93L-63.79 -75.13L-67.49 -78.43C-67.79 -78.63 -67.99 -78.93 -67.99 -79.23C-68.09 -80.03 -67.49 -80.63 -66.79 -80.83L-61.79 -81.53L-59.79 -86.23C-59.79 -86.53 -59.49 -86.83 -59.09 -86.93C-58.39 -87.13 -57.69 -86.93 -57.39 -86.23L-55.39 -81.63L-50.39 -81.03C-50.09 -80.93 -49.79 -80.83 -49.59 -80.53C-49.09 -79.93 -49.19 -79.13 -49.59 -78.73ZM-58.79 -72.63C-58.69 -72.83 -58.29 -72.83 -58.09 -72.63L-53.99 -69.83L-54.79 -75.33C-54.89 -75.53 -54.79 -75.73 -54.59 -75.93L-50.39 -79.53L-55.69 -80.23C-55.99 -80.23 -56.19 -80.43 -56.29 -80.63L-58.49 -85.63L-58.79 -72.63Z" />
					<g id="Layer">
						<g id="Layer">
						</g>
					</g>
				</g>
			</g>
		</g>
	</g>
	<g id="Layer">
		<g id="Layer">
			<g id="Layer">
			</g>
		</g>
	</g>
	<g id="Layer">
		<g id="Layer">
			<g id="Layer">
				<path id="Layer" fill-rule="evenodd" class="shp0" d="M18.8 7.1C18.6 6.8 18.3 6.7 18 6.6L18 6.6L13 6L11 1.4C10.7 0.7 10 0.5 9.3 0.7C9 0.9 8.7 1.2 8.6 1.5L6.6 6.2L1.6 6.9C1 7.1 0.4 7.8 0.5 8.5C0.5 8.8 0.7 9.1 1 9.3L4.7 12.6L4 17.8C3.9 18.4 4.2 18.8 4.7 19.1C5.2 19.4 5.7 19.4 6.2 19L10 16.4L13.8 18.9C14.5 19.3 15.3 19.2 15.7 18.5C15.9 18.2 16 17.8 15.9 17.6L15.2 12.4L18.9 9C19.3 8.5 19.4 7.7 18.8 7.1Z" />
				<path id="Layer copy 3" fill-rule="evenodd" class="shp0" d="M66.8 7.1C66.6 6.8 66.3 6.7 66 6.6L66 6.6L61 6L59 1.4C58.7 0.7 58 0.5 57.3 0.7C57 0.9 56.7 1.2 56.6 1.5L54.6 6.2L49.6 6.9C49 7.1 48.4 7.8 48.5 8.5C48.5 8.8 48.7 9.1 49 9.3L52.7 12.6L52 17.8C51.9 18.4 52.2 18.8 52.7 19.1C53.2 19.4 53.7 19.4 54.2 19L58 16.4L61.8 18.9C62.5 19.3 63.3 19.2 63.7 18.5C63.9 18.2 64 17.8 63.9 17.6L63.2 12.4L66.9 9C67.3 8.5 67.4 7.7 66.8 7.1Z" />
				<path id="Layer copy 2" fill-rule="evenodd" class="shp0" d="M42.8 7.1C42.6 6.8 42.3 6.7 42 6.6L42 6.6L37 6L35 1.4C34.7 0.7 34 0.5 33.3 0.7C33 0.9 32.7 1.2 32.6 1.5L30.6 6.2L25.6 6.9C25 7.1 24.4 7.8 24.5 8.5C24.5 8.8 24.7 9.1 25 9.3L28.7 12.6L28 17.8C27.9 18.4 28.2 18.8 28.7 19.1C29.2 19.4 29.7 19.4 30.2 19L34 16.4L37.8 18.9C38.5 19.3 39.3 19.2 39.7 18.5C39.9 18.2 40 17.8 39.9 17.6L39.2 12.4L42.9 9C43.3 8.5 43.4 7.7 42.8 7.1Z" />
			</g>
		</g>
	</g>
	<g id="Layer">
		<g id="Layer">
			<g id="Layer">
				<path id="Layer" fill-rule="evenodd" class="shp0" d="M89.7 9.1L86 12.5L86.8 17.5C86.9 17.7 86.8 18.1 86.6 18.4C86.2 19.1 85.4 19.2 84.7 18.8L80.9 16.3L77.1 18.9C76.6 19.3 76.1 19.3 75.6 19C75.1 18.7 74.8 18.3 74.9 17.7L75.6 12.5L71.9 9.2C71.6 9 71.4 8.7 71.4 8.4C71.3 7.6 71.9 7 72.6 6.8L77.6 6.1L79.6 1.4C79.6 1.1 79.9 0.8 80.3 0.7C81 0.5 81.7 0.7 82 1.4L84 6L89 6.6C89.3 6.7 89.6 6.8 89.8 7.1C90.3 7.7 90.2 8.5 89.7 9.1ZM89 8.1L83.7 7.4C83.4 7.4 83.2 7.2 83.1 7L80.9 2L78.8 7C78.7 7.2 78.4 7.4 78.2 7.4L72.9 8.2L76.9 11.8C77 11.9 77.1 12.2 77.1 12.4L76.4 17.9L80.6 15C80.7 14.8 81.1 14.8 81.3 15L85.4 17.8L84.6 12.3C84.5 12.1 84.6 11.9 84.8 11.7L89 8.1Z" />
			</g>
		</g>
	</g>
	<g id="Layer">
		<g id="Layer">
			<g id="Layer">
				<path id="Layer" fill-rule="evenodd" class="shp0" d="M113.4 8.9L109.7 12.3L110.4 17.5C110.5 17.7 110.4 18.1 110.2 18.4C109.8 19.1 109 19.2 108.3 18.8L104.5 16.3L100.7 18.9C100.2 19.3 99.7 19.3 99.2 19C98.7 18.7 98.4 18.3 98.5 17.7L99.2 12.5L95.5 9.2C95.2 9 95 8.7 95 8.4C94.9 7.6 95.5 7 96.2 6.8L101.2 6.1L103.2 1.4C103.2 1.1 103.5 0.8 103.9 0.7C104.6 0.5 105.3 0.7 105.6 1.4L107.6 6L112.6 6.6C112.9 6.7 113.2 6.8 113.4 7.1C113.9 7.7 113.9 8.5 113.4 8.9ZM112.6 8.1L107.3 7.4C107 7.4 106.8 7.2 106.7 7L104.5 2L102.4 7C102.3 7.2 102 7.4 101.8 7.4L96.5 8.2L100.5 11.8C100.6 11.9 100.7 12.2 100.7 12.4L100 17.9L104.2 15C104.3 14.8 104.7 14.8 104.9 15L109 17.8L108.2 12.3C108.1 12.1 108.2 11.9 108.4 11.7L112.6 8.1Z" />
			</g>
		</g>
	</g>
</svg>